<svg xmlns="http://www.w3.org/2000/svg" xmlns:xlink="http://www.w3.org/1999/xlink" viewBox="0 0 58.18 57.96"><defs><style>.cls-1,.cls-3{mask:url(#mask);}.cls-1{filter:url(#luminosity-noclip-3);}.cls-13,.cls-15,.cls-2,.cls-4,.cls-8{mix-blend-mode:multiply;}.cls-2{fill:url(#radial-gradient);}.cls-4{fill:url(#radial-gradient-2);}.cls-5{isolation:isolate;}.cls-6{fill:#5a5a5a;}.cls-7{fill:#2b2c2c;}.cls-11,.cls-12,.cls-8{opacity:0.6;}.cls-9{fill:#96d7f8;}.cls-10,.cls-9{mix-blend-mode:overlay;}.cls-10{fill:#fff;}.cls-12,.cls-14,.cls-17{mix-blend-mode:screen;}.cls-13{fill:url(#radial-gradient-3);}.cls-14{fill:#77ccf5;}.cls-15{fill:#94703e;}.cls-16{mask:url(#mask-3);}.cls-17{fill:url(#radial-gradient-4);}.cls-18{filter:url(#luminosity-noclip);}</style><filter id="luminosity-noclip" x="0.9" y="-8294.02" width="45.63" height="32766" filterUnits="userSpaceOnUse" color-interpolation-filters="sRGB"><feFlood flood-color="#fff" result="bg"/><feBlend in="SourceGraphic" in2="bg"/></filter><mask id="mask" x="0.9" y="-8294.02" width="45.63" height="32766" maskUnits="userSpaceOnUse"><g class="cls-18"/></mask><radialGradient id="radial-gradient" cx="37.42" cy="41.22" r="41.61" gradientTransform="translate(-0.53 -1.74) scale(1 0.99)" gradientUnits="userSpaceOnUse"><stop offset="0.34"/><stop offset="0.43" stop-color="#040404"/><stop offset="0.51" stop-color="#101010"/><stop offset="0.59" stop-color="#242424"/><stop offset="0.67" stop-color="#404040"/><stop offset="0.75" stop-color="#646464"/><stop offset="0.83" stop-color="#909090"/><stop offset="0.91" stop-color="#c4c4c4"/><stop offset="0.99" stop-color="#fff"/></radialGradient><radialGradient id="radial-gradient-2" cx="37.42" cy="41.22" r="41.61" gradientTransform="translate(-0.53 -1.74) scale(1 0.99)" gradientUnits="userSpaceOnUse"><stop offset="0.35"/><stop offset="0.43" stop-color="#040404"/><stop offset="0.51" stop-color="#101010"/><stop offset="0.59" stop-color="#242424"/><stop offset="0.67" stop-color="#404040"/><stop offset="0.75" stop-color="#646464"/><stop offset="0.84" stop-color="#909090"/><stop offset="0.91" stop-color="#c4c4c4"/><stop offset="0.99" stop-color="#fff"/></radialGradient><radialGradient id="radial-gradient-3" cx="12.52" cy="18.17" r="46.74" gradientTransform="translate(-0.53 -1.74) scale(1 0.99)" gradientUnits="userSpaceOnUse"><stop offset="0" stop-color="#fff"/><stop offset="0.38" stop-color="#fdfdfd"/><stop offset="0.51" stop-color="#f6f6f6"/><stop offset="0.61" stop-color="#ebeaeb"/><stop offset="0.68" stop-color="#dadada"/><stop offset="0.75" stop-color="#c4c4c4"/><stop offset="0.81" stop-color="#a9a8a9"/><stop offset="0.86" stop-color="#898888"/><stop offset="0.91" stop-color="#646263"/><stop offset="0.96" stop-color="#3b393a"/><stop offset="0.98" stop-color="#1f1d1e"/></radialGradient><filter id="luminosity-noclip-3" x="0.9" y="0.4" width="45.63" height="44.44" filterUnits="userSpaceOnUse" color-interpolation-filters="sRGB"><feFlood flood-color="#fff" result="bg"/><feBlend in="SourceGraphic" in2="bg"/></filter><mask id="mask-3" x="0.9" y="0.4" width="45.63" height="44.44" maskUnits="userSpaceOnUse"><g class="cls-1"><path class="cls-2" d="M8.46,42.67c2-1,3.25-2.58,3-5-.35-3.21-2.46-6-2.21-9.33a5.47,5.47,0,0,1,3.32-4.56c2-.9,4.4-.81,6.57-1.11,1.82-.26,3.68-.72,4.6-2.5a17.07,17.07,0,0,1,1.65-3c1.72-2.13,5-2.17,7.17-.84,1.21.73,2.45,2.59,3.9,2.79,2.62.37,2.67-2,3.34-3.77.05-.13.25-.3.39-.23,1.54.71,2.45,2.68,4,3.19,2.16.7,2.51-3.76,2.22-5C46.09,12,45.49,10.68,45,9.3s-1.22-3-.48-4.3A28.2,28.2,0,0,0,.9,28.49,27.87,27.87,0,0,0,6.17,44.84,4.31,4.31,0,0,1,8.46,42.67Z"/></g></mask><radialGradient id="radial-gradient-4" cx="37.42" cy="41.22" r="41.61" gradientTransform="translate(-0.53 -1.74) scale(1 0.99)" gradientUnits="userSpaceOnUse"><stop offset="0.35" stop-color="#2b2b2b"/><stop offset="0.44" stop-color="#2e2f2f"/><stop offset="0.53" stop-color="#37393b"/><stop offset="0.62" stop-color="#464c4f"/><stop offset="0.71" stop-color="#5a656b"/><stop offset="0.8" stop-color="#75868f"/><stop offset="0.89" stop-color="#96aebb"/><stop offset="0.98" stop-color="#bcddef"/><stop offset="0.99" stop-color="#c5e8fb"/></radialGradient></defs><title>Kazan</title><g class="cls-5"><g id="Слой_2" data-name="Слой 2"><g id="Layer_2" data-name="Layer 2"><path class="cls-6" d="M57.94,29A28.85,28.85,0,1,1,29.09.24,28.79,28.79,0,0,1,57.94,29Z"/><path class="cls-7" d="M29.09,58A29,29,0,1,1,58.18,29,29.07,29.07,0,0,1,29.09,58Zm0-57.48A28.5,28.5,0,1,0,57.7,29,28.58,28.58,0,0,0,29.09.48Z"/><g class="cls-8"><path class="cls-9" d="M47.61,31.33c-1.62.78-3.29,1.47-4.94,2.16a18.32,18.32,0,0,1-2.17.69c.45-.58.83-1.18,1.08-1.53,1.55-2.18,4.06-3.92,5.06-6.45.23-.59-.52-.83-.77-.3-1,2.11-3.41,3.83-5.12,5.36a14.94,14.94,0,0,0-1.1,1.15,11.29,11.29,0,0,0-1.79-6.51c-.17-.23-.49.07-.38.3.78,1.61.46,3.67.4,5.38,0,.57-.07,1.13-.14,1.69-.3-.53-.52-1.22-.83-1.69-1-1.49-2.46-2.61-3.49-4.06-.31-.44-.94.13-.71.55a34.07,34.07,0,0,1,2.49,5.12c.1.28.19.62.29,1a11.7,11.7,0,0,1-1.13-.51c-.62-.31-1.22-.66-1.84-1a12.43,12.43,0,0,1-2.27-1c-.3-.22-.69.28-.42.53a40.13,40.13,0,0,0,3.31,2.42c.12.08.23.18.35.27A20.42,20.42,0,0,1,27,33.58c-.25-.11-.48.32-.22.46a29.84,29.84,0,0,0,8.14,2.64c-.66.17-1.32.33-2,.47-3,.6-5.77,1.94-8.73,2.47-.24,0-.28.44,0,.41,3.24-.36,6.28-1.46,9.54-1.8q.4,0,.87,0c-3.26,1.91-5.79,4.69-8.57,7.46a.29.29,0,1,0,.38.43c2.14-1.81,3.92-3.83,6.4-5.24a26.22,26.22,0,0,1,3.66-1.42,51.85,51.85,0,0,1-3.08,8.66.34.34,0,0,0,.53.43c2.63-2.05,3.9-5.11,4.71-8.24a51.28,51.28,0,0,1,2.2,6.21c.16.5.79.06.73-.34a69.76,69.76,0,0,0-1.1-6.9l-.12-.45a8.3,8.3,0,0,0,.76.45c1,.5,1.92,1.51,3.14,1.48.51,0,1.1-.95.41-1.14-1-.27-1.69-1.38-2.53-1.93a5.28,5.28,0,0,1-1.21-1.24,11.81,11.81,0,0,0,1.25-.75c1.91-1.26,3.79-2.57,5.7-3.86C48.09,31.64,47.94,31.17,47.61,31.33Z"/><path class="cls-9" d="M50.38,15.4a5.11,5.11,0,0,1-2-.36L47.93,15c.44-.56.83-1.18,1.23-1.75s-.08-1.06-.62-.69-.92.63-1.37,1c-.2.14-.38.29-.57.44.07-.06-.47.32-.22.17l-.11.06a26.61,26.61,0,0,1-.6-4c0-.53-.72-.28-.74.15,0,1.36.06,2.69,0,4-.6-1.35-1.38-3.23-2.52-4.07-.33-.24-.78.31-.47.58a10.17,10.17,0,0,1,1.92,3.49l-.58-.3a15.49,15.49,0,0,0-2.7-1.11c-.36-.13-.69.46-.32.65a7.29,7.29,0,0,1,2.43,1.62,1.83,1.83,0,0,1,.13.16,15,15,0,0,0-5.49.66c-.19.08-.29.53,0,.51a15.27,15.27,0,0,1,5.13.4h0a19,19,0,0,1-2.71.62c-.28,0-.41.56-.06.58a17,17,0,0,0,2.76-.18c-.49.63-1.06,1.47-1.74,1.66-.25.07-.43.54-.07.57A3.72,3.72,0,0,0,42.94,19c.52-.4,1.25-.74,1.82-1.17l.45-.07c.14.3.28.59.4.9.3.74.23,1.58.56,2.34.22.52.94.09.81-.39-.29-1-.29-2.1-.65-3.13,0,0,0-.05,0-.08l.38.26c.3.24.64.39.93.64a4,4,0,0,0,1,.64c.34.14.73-.42.42-.66a3.92,3.92,0,0,1-.7-.71c-.24-.29-.56-.5-.8-.77l-.18-.21a4.19,4.19,0,0,1,.7-.09,5.05,5.05,0,0,0,2.41-.43C50.77,15.92,50.86,15.31,50.38,15.4Z"/><path class="cls-10" d="M52.34,35.32a.68.68,0,0,0-.63-.51c-1.07,0-1.56,1.12-1.6,2a.75.75,0,0,0,.61.76l.12,0C52,37.73,52.66,36.27,52.34,35.32Z"/><path class="cls-10" d="M53.62,24.37A1.54,1.54,0,0,0,51.81,24a2.49,2.49,0,0,0-1,1c-.63.9-1.43,2.45-.72,3.45a1.79,1.79,0,0,0,2.17.35,3.35,3.35,0,0,0,1.85-2.92A2,2,0,0,0,53.62,24.37Z"/><path class="cls-10" d="M47.57,42.45a.83.83,0,0,0-.93.35,1,1,0,0,0-.47.62c-.08.34.11.84.54.82a1.3,1.3,0,0,0,1.17-.78A.72.72,0,0,0,47.57,42.45Z"/><path class="cls-10" d="M40.55,50.48a1.4,1.4,0,0,0-1.92-.8,3.54,3.54,0,0,0-1.83,2.84A1.12,1.12,0,0,0,38,53.75a2.43,2.43,0,0,0,1.78-.83A2.6,2.6,0,0,0,40.55,50.48Z"/><path class="cls-10" d="M14.21,14.89a1.18,1.18,0,0,0-1.34-1.14,2.09,2.09,0,0,0-1.65,1.65,2.35,2.35,0,0,0,0,1,1,1,0,0,0,.88.8,1.83,1.83,0,0,0,1.42-.65A2.09,2.09,0,0,0,14.21,14.89Z"/><path class="cls-9" d="M15.76,25.84a12.47,12.47,0,0,1-3.5,1.33c-.26.07-.76.34-1.19.52.38-.44.71-1,1-1.34a9,9,0,0,0,1.66-2.73c.13-.42-.47-.46-.62-.13a8.12,8.12,0,0,1-1.79,2.25c-.37.37-.87.75-1.28,1.18L10,26.08c-.14-1.07-.11-2.19-.33-3.25-.05-.25-.4-.07-.39.13A23.13,23.13,0,0,1,9,26.66a3.83,3.83,0,0,0-1.51-1.8c-.2-.11-.44.25-.25.39a4.37,4.37,0,0,1,1.2,1.95L8.06,27A11.13,11.13,0,0,0,4.4,25.83c-.29,0-.45.46-.12.51A13.56,13.56,0,0,1,7.72,27.7a5.51,5.51,0,0,1,.79.44c-.48.1-1,.19-1.45.32a12.4,12.4,0,0,0-2.44,1c-.25.12-.19.54.13.43A13.7,13.7,0,0,1,7.63,29l.18,0A11.3,11.3,0,0,0,5.06,31.7c-.16.24.05.58.32.36.87-.7,1.74-1.43,2.58-2.18-.74,1.19-1.63,3-1.36,4.34.05.25.38.13.46,0a29.71,29.71,0,0,1,2-3.85l.21-.3a7.69,7.69,0,0,1,.18,1.05c.05.69.18,1.39.24,2.09a13.37,13.37,0,0,1,.24,2.49c-.08.52.55.44.68,0a13.35,13.35,0,0,0,.28-3.85c0-.47,0-.95,0-1.43l.2.29c.54.85.87,2.4,1.75,2.94.35.22.91-.26.63-.61a15.08,15.08,0,0,1-1.12-2.85c-.08-.17-.16-.35-.25-.53a7.07,7.07,0,0,1,2,1c.39.27.88-.33.54-.66a5.34,5.34,0,0,0-1.85-1.42c-.2-.07-.41-.12-.62-.18a18.52,18.52,0,0,0,3.94-2.13C16.38,26.06,16.13,25.6,15.76,25.84Z"/><path class="cls-10" d="M11.14,42.64a4.93,4.93,0,0,0-.4.39,1.35,1.35,0,0,0-.17.34,3,3,0,0,0-.41,1.42c0,.45.47.63.82.47a2.37,2.37,0,0,0,1.29-2.18C12.31,42.48,11.54,42.28,11.14,42.64Z"/><path class="cls-10" d="M19,38.84a1.61,1.61,0,0,0-2.15-1.52A3.73,3.73,0,0,0,15,39.92,2.28,2.28,0,0,0,14.88,41,1.81,1.81,0,0,0,16,42.65c1.57.64,2.75-1.07,3.1-2.36A2.21,2.21,0,0,0,19,38.84Z"/><path class="cls-10" d="M34.46,7.2a1.62,1.62,0,0,0-.81.11.34.34,0,0,0-.2,0,2.09,2.09,0,0,0-1.29,1.16,2.86,2.86,0,0,0-.22.3,1.83,1.83,0,0,0,.18,2.31,1.6,1.6,0,0,0,1.25.33,1.69,1.69,0,0,0,.44-.12,2.35,2.35,0,0,0,.53-.25,2.78,2.78,0,0,0,1.29-2.23A1.39,1.39,0,0,0,34.46,7.2Z"/><path class="cls-10" d="M23.06,8.12l-.15,0,.06,0a.81.81,0,0,0-1,.26h0a.81.81,0,0,0-.07,1l0,.07c.24.43.8.22,1.06-.09A.72.72,0,0,0,23.06,8.12Z"/><path class="cls-10" d="M14.9,10.44c-.09,0-.1,0,0,0l-.15,0a1,1,0,0,0-.52.18.87.87,0,0,0-.44.54.55.55,0,0,0,.3.66l.53.12a.88.88,0,0,0,.86-.69A.6.6,0,0,0,14.9,10.44Z"/></g><g class="cls-11"><path class="cls-10" d="M12.5,40.18c-3.09-5.1-5.9-11.4-6.22-17.51a.6.6,0,0,0-.06.23c0,10.09,6,21.54,14.56,27.23A42.64,42.64,0,0,1,12.5,40.18Z"/><path class="cls-10" d="M11.11,44.57C7.72,39.09,4.82,32.53,4.63,26a13.6,13.6,0,0,1-.12-1.42A27.84,27.84,0,0,1,5,19.46a.31.31,0,0,0-.14.16c-3,8.9,1.08,17.81,6,25.13C11,44.89,11.19,44.7,11.11,44.57Z"/><path class="cls-10" d="M26.91,23.92c-1.42-.76-2.85-1.49-4.26-2.22a38.15,38.15,0,0,0-10.1-3.87l-.43,0A22.09,22.09,0,0,0,9.69,18c4.37.48,8.77,2.62,12.52,4.6,3.47,1.82,6.91,3.76,10.27,5.79-.16-.2-.34-.39-.51-.58C30.33,26.45,28.63,25.17,26.91,23.92Z"/><path class="cls-10" d="M18.16,16.58c-2.95-.41-5.57-1.15-8.58-1.13-.08,0-.13.14,0,.14,3,0,5.69.81,8.59,1.1C18.19,16.69,18.23,16.59,18.16,16.58Z"/><path class="cls-10" d="M36.48,9.89A35.12,35.12,0,0,0,21.71,8.82,38.56,38.56,0,0,0,16.36,10a.25.25,0,0,1-.12.08,20.68,20.68,0,0,0-5.09,2.74,10.85,10.85,0,0,0-2.28,1.6A.48.48,0,0,0,9,14.41C17.25,8.94,27.21,8,36.74,10.14a.08.08,0,0,0,.08,0Z"/><path class="cls-10" d="M30.76,5.22h0a36.13,36.13,0,0,0-10,1.34c-1,.44-2,.9-2.91,1.42-.7.38-1.38.77-2.06,1.19a38.61,38.61,0,0,1,17.1-3.63C32.13,5.44,31.42,5.36,30.76,5.22Z"/><path class="cls-10" d="M23.43,2.41C18.83,3.58,13.51,5.51,9.94,9a16.81,16.81,0,0,0-2.07,3.36,23.47,23.47,0,0,1,7-6.22,35.93,35.93,0,0,1,8.6-3.37C23.62,2.7,23.66,2.35,23.43,2.41Z"/></g><g class="cls-12"><path class="cls-10" d="M48,30.94c-1.61.78-3.28,1.47-4.94,2.16-.68.28-1.43.47-2.16.69.44-.59.82-1.18,1.07-1.54C43.47,30.08,46,28.34,47,25.8c.23-.59-.52-.82-.78-.29-1,2.1-3.41,3.83-5.12,5.35A13.34,13.34,0,0,0,40,32a11.44,11.44,0,0,0-1.79-6.51c-.18-.24-.5.07-.39.3.78,1.6.46,3.66.41,5.38,0,.57-.07,1.13-.14,1.69-.3-.53-.52-1.22-.84-1.69-1-1.5-2.45-2.61-3.49-4.07-.31-.43-.93.14-.71.56a34,34,0,0,1,2.49,5.11c.1.29.19.63.29,1-.39-.16-.77-.33-1.13-.51-.62-.31-1.21-.67-1.84-1a13.06,13.06,0,0,1-2.26-1c-.3-.23-.7.27-.43.53a38,38,0,0,0,3.32,2.41l.34.27a20.08,20.08,0,0,1-6.51-1.27c-.26-.11-.49.32-.23.46a30.19,30.19,0,0,0,8.14,2.64c-.65.17-1.31.33-2,.47-3,.6-5.78,1.94-8.74,2.47-.24,0-.28.44,0,.41,3.25-.37,6.28-1.47,9.55-1.8a7.77,7.77,0,0,1,.86,0c-3.26,1.91-5.78,4.69-8.57,7.46a.29.29,0,0,0,.39.43c2.14-1.81,3.92-3.83,6.39-5.24A24.72,24.72,0,0,1,36.79,39,52.21,52.21,0,0,1,33.7,47.7a.35.35,0,0,0,.53.43c2.63-2.05,3.91-5.11,4.71-8.24a51.32,51.32,0,0,1,2.21,6.21c.15.5.78.06.72-.34a69.76,69.76,0,0,0-1.1-6.9l-.12-.46a7.45,7.45,0,0,0,.76.45c1,.5,1.92,1.52,3.14,1.48.51,0,1.1-.94.41-1.13-1-.27-1.69-1.38-2.53-1.93A5.28,5.28,0,0,1,41.23,36a12.68,12.68,0,0,0,1.24-.74c1.92-1.27,3.8-2.58,5.7-3.86C48.43,31.25,48.28,30.78,48,30.94Z"/><path class="cls-10" d="M50.73,15a5.31,5.31,0,0,1-2-.35c-.14,0-.3-.06-.46-.09.45-.56.83-1.18,1.23-1.75s-.08-1.06-.61-.69-.93.63-1.38,1l-.57.43c.07,0-.47.33-.22.17l-.1.07a25.41,25.41,0,0,1-.61-4c0-.53-.72-.28-.74.15-.05,1.36.06,2.69-.05,4-.6-1.35-1.37-3.24-2.52-4.07-.33-.24-.78.31-.47.58a10.08,10.08,0,0,1,1.92,3.49l-.58-.31a15.92,15.92,0,0,0-2.7-1.1c-.36-.13-.69.46-.31.64A7.32,7.32,0,0,1,43,14.78a1.83,1.83,0,0,0,.13.16,14.73,14.73,0,0,0-5.49.66c-.2.08-.3.53,0,.51a15,15,0,0,1,5.13.4h0a17.65,17.65,0,0,1-2.7.63c-.29,0-.42.56-.07.57a15.93,15.93,0,0,0,2.76-.17c-.49.63-1.06,1.47-1.74,1.66-.25.07-.43.54-.06.57a3.76,3.76,0,0,0,2.32-1.15c.51-.39,1.24-.73,1.82-1.16l.45-.07c.14.3.28.59.39.89.3.75.23,1.58.56,2.34.22.52,1,.1.81-.38-.29-1-.29-2.1-.65-3.13l0-.08c.13.08.25.17.37.26.3.23.64.39.94.64a4,4,0,0,0,1,.64c.34.13.73-.42.42-.66a5.3,5.3,0,0,1-.7-.72c-.24-.28-.56-.49-.8-.77l-.18-.21a5.51,5.51,0,0,1,.71-.09,5.09,5.09,0,0,0,2.41-.42C51.12,15.52,51.21,14.92,50.73,15Z"/><path class="cls-10" d="M52.68,34.92a.68.68,0,0,0-.63-.5c-1.07,0-1.55,1.12-1.6,2a.75.75,0,0,0,.62.76l.11,0C52.31,37.33,53,35.88,52.68,34.92Z"/><path class="cls-10" d="M54,24a1.55,1.55,0,0,0-1.81-.37,2.58,2.58,0,0,0-1,1c-.64.9-1.44,2.44-.73,3.45a1.79,1.79,0,0,0,2.17.34,3.33,3.33,0,0,0,1.85-2.91A1.94,1.94,0,0,0,54,24Z"/><path class="cls-10" d="M47.92,42.06a.82.82,0,0,0-.94.35,1,1,0,0,0-.47.62c-.08.34.12.84.54.82a1.29,1.29,0,0,0,1.17-.78A.72.72,0,0,0,47.92,42.06Z"/><path class="cls-10" d="M40.9,50.09a1.4,1.4,0,0,0-1.93-.8,3.48,3.48,0,0,0-1.82,2.84,1.11,1.11,0,0,0,1.15,1.23,2.49,2.49,0,0,0,1.78-.83A2.6,2.6,0,0,0,40.9,50.09Z"/><path class="cls-10" d="M14.55,14.5a1.18,1.18,0,0,0-1.34-1.14A2.08,2.08,0,0,0,11.56,15a2.52,2.52,0,0,0,0,1,1,1,0,0,0,.88.8,1.88,1.88,0,0,0,1.42-.66A2.07,2.07,0,0,0,14.55,14.5Z"/><path class="cls-10" d="M16.11,25.45a12.85,12.85,0,0,1-3.51,1.33c-.26.07-.75.34-1.19.52.38-.44.72-1,1-1.35a8.77,8.77,0,0,0,1.66-2.72c.13-.42-.47-.47-.62-.13a8.08,8.08,0,0,1-1.79,2.25c-.37.37-.86.75-1.27,1.17,0-.27-.06-.55-.1-.83-.14-1.08-.11-2.2-.32-3.25-.05-.25-.41-.07-.4.13a22.93,22.93,0,0,1-.23,3.69,3.92,3.92,0,0,0-1.51-1.8c-.2-.11-.43.26-.25.4a4.3,4.3,0,0,1,1.21,1.95l-.4-.2a11.62,11.62,0,0,0-3.66-1.18c-.29,0-.46.47-.12.52A14.06,14.06,0,0,1,8.07,27.3a7,7,0,0,1,.79.45c-.49.1-1,.19-1.45.31a13.13,13.13,0,0,0-2.44,1c-.26.13-.2.55.12.43A14.49,14.49,0,0,1,8,28.65l.19,0A10.92,10.92,0,0,0,5.41,31.3c-.17.25,0,.58.32.36.86-.7,1.73-1.42,2.57-2.17-.73,1.19-1.63,3-1.36,4.34,0,.25.39.13.46,0a29.89,29.89,0,0,1,2-3.86c.06-.1.14-.19.21-.29a7.76,7.76,0,0,1,.17,1c.05.7.18,1.4.24,2.1a12.52,12.52,0,0,1,.25,2.49c-.09.51.54.43.68,0a13.71,13.71,0,0,0,.27-3.85c0-.47,0-.95,0-1.43l.2.29c.53.85.86,2.4,1.74,2.94.35.22.91-.26.63-.62-.58-.73-.72-2-1.12-2.85l-.24-.52a7.16,7.16,0,0,1,2,1c.4.26.88-.34.54-.67a5.39,5.39,0,0,0-1.84-1.41,6.32,6.32,0,0,0-.62-.18,18.45,18.45,0,0,0,3.93-2.13C16.72,25.67,16.48,25.21,16.11,25.45Z"/><path class="cls-10" d="M11.49,42.25a3,3,0,0,0-.4.39.78.78,0,0,0-.17.34,2.85,2.85,0,0,0-.42,1.41.55.55,0,0,0,.82.48,2.38,2.38,0,0,0,1.3-2.18C12.66,42.08,11.88,41.89,11.49,42.25Z"/><path class="cls-10" d="M19.3,38.45a1.61,1.61,0,0,0-2.14-1.53,3.78,3.78,0,0,0-1.86,2.61,2.28,2.28,0,0,0-.08,1.07,1.83,1.83,0,0,0,1.12,1.66c1.58.64,2.76-1.07,3.1-2.37A2.12,2.12,0,0,0,19.3,38.45Z"/><path class="cls-10" d="M34.8,6.81a1.63,1.63,0,0,0-.81.11.44.44,0,0,0-.2,0A2.13,2.13,0,0,0,32.5,8.08a2.73,2.73,0,0,0-.21.3,1.81,1.81,0,0,0,.17,2.31,1.57,1.57,0,0,0,1.25.32,1.35,1.35,0,0,0,.45-.11,2.49,2.49,0,0,0,.52-.25A2.8,2.8,0,0,0,36,8.41,1.37,1.37,0,0,0,34.8,6.81Z"/><path class="cls-10" d="M23.4,7.73l-.14-.06,0,0a.82.82,0,0,0-1,.25l0,0a.83.83,0,0,0-.07,1l0,.07c.24.43.81.22,1.06-.09A.72.72,0,0,0,23.4,7.73Z"/><path class="cls-10" d="M15.25,10.05c-.1,0-.11,0,0,0l-.16,0a1,1,0,0,0-.52.18.85.85,0,0,0-.44.54.55.55,0,0,0,.3.66,5,5,0,0,0,.53.11.87.87,0,0,0,.86-.68A.6.6,0,0,0,15.25,10.05Z"/></g><path class="cls-13" d="M57.94,29A28.85,28.85,0,1,1,29.09.29,28.79,28.79,0,0,1,57.94,29Z"/><path class="cls-14" d="M11.13,7S-6.93,22.11,4.4,42.24C4.4,42.24-4.32,22.77,11.13,7Z"/><path class="cls-15" d="M54.13,16s6.45,20.32-5.47,33.21C48.66,49.24,63.13,38.39,54.13,16Z"/><g class="cls-16"><g class="cls-16"><path class="cls-17" d="M8.46,42.67c2-1,3.25-2.58,3-5-.35-3.21-2.46-6-2.21-9.33a5.47,5.47,0,0,1,3.32-4.56c2-.9,4.4-.81,6.57-1.11,1.82-.26,3.68-.72,4.6-2.5a17.07,17.07,0,0,1,1.65-3c1.72-2.13,5-2.17,7.17-.84,1.21.73,2.45,2.59,3.9,2.79,2.62.37,2.67-2,3.34-3.77.05-.13.25-.3.39-.23,1.54.71,2.45,2.68,4,3.19,2.16.7,2.51-3.76,2.22-5C46.09,12,45.49,10.68,45,9.3s-1.22-3-.48-4.3A28.2,28.2,0,0,0,.9,28.49,27.87,27.87,0,0,0,6.17,44.84,4.31,4.31,0,0,1,8.46,42.67Z"/></g></g></g></g></g></svg>