<svg width="42" height="42" viewBox="0 0 42 42" fill="none" xmlns="http://www.w3.org/2000/svg">
<path fill-rule="evenodd" clip-rule="evenodd" d="M8.89648 13.7596L8.94444 13.6768L8.89648 13.7596Z" fill="#1B1C1E"/>
<path fill-rule="evenodd" clip-rule="evenodd" d="M8.63086 14.2001L8.67881 14.1113L8.63086 14.2001Z" fill="#1B1C1E"/>
<path fill-rule="evenodd" clip-rule="evenodd" d="M7.0293 12.043L7.15963 11.8433L7.0293 12.043Z" fill="#1B1C1E"/>
<path fill-rule="evenodd" clip-rule="evenodd" d="M9.16992 13.3133L9.24811 13.1904L9.16992 13.3133Z" fill="#1B1C1E"/>
<path fill-rule="evenodd" clip-rule="evenodd" d="M9.24609 13.1893L9.3295 13.0664L9.24609 13.1893Z" fill="#1B1C1E"/>
<path fill-rule="evenodd" clip-rule="evenodd" d="M9.35352 13.0696L9.44372 12.9497L9.35352 13.0696Z" fill="#1B1C1E"/>
<path fill-rule="evenodd" clip-rule="evenodd" d="M6.9082 12.2473L7.03332 12.0425L6.9082 12.2473Z" fill="#1B1C1E"/>
<path fill-rule="evenodd" clip-rule="evenodd" d="M7.16406 11.8428L7.24225 11.7148L7.16406 11.8428Z" fill="#1B1C1E"/>
<path fill-rule="evenodd" clip-rule="evenodd" d="M7.26758 11.7159L7.35099 11.5879L7.26758 11.7159Z" fill="#1B1C1E"/>
<path fill-rule="evenodd" clip-rule="evenodd" d="M7.32422 11.5868L7.40763 11.4639L7.32422 11.5868Z" fill="#1B1C1E"/>
<path fill-rule="evenodd" clip-rule="evenodd" d="M7.4082 11.4666L7.49312 11.3467L7.4082 11.4666Z" fill="#1B1C1E"/>
<path fill-rule="evenodd" clip-rule="evenodd" d="M7.48828 11.354L7.57688 11.2344L7.48828 11.354Z" fill="#1B1C1E"/>
<path fill-rule="evenodd" clip-rule="evenodd" d="M12.2832 9.84987L12.4032 9.76953L12.2832 9.84987Z" fill="#1B1C1E"/>
<path fill-rule="evenodd" clip-rule="evenodd" d="M7.57617 11.2337L7.70128 11.0596L7.57617 11.2337Z" fill="#1B1C1E"/>
<path fill-rule="evenodd" clip-rule="evenodd" d="M7.70117 11.0763L7.76733 10.9575L7.70117 11.0763Z" fill="#1B1C1E"/>
<path fill-rule="evenodd" clip-rule="evenodd" d="M8.50391 10.0418L8.63944 9.88818L8.50391 10.0418Z" fill="#1B1C1E"/>
<path fill-rule="evenodd" clip-rule="evenodd" d="M12.4746 9.68094L12.5946 9.60596L12.4746 9.68094Z" fill="#1B1C1E"/>
<path fill-rule="evenodd" clip-rule="evenodd" d="M7.84375 10.8699L7.90369 10.7988L7.84375 10.8699Z" fill="#1B1C1E"/>
<path fill-rule="evenodd" clip-rule="evenodd" d="M9.08008 13.4405L9.1687 13.3125L9.08008 13.4405Z" fill="#1B1C1E"/>
<path fill-rule="evenodd" clip-rule="evenodd" d="M9.08521 13.4404L9.0332 13.5603L9.08521 13.4404Z" fill="#1B1C1E"/>
<path fill-rule="evenodd" clip-rule="evenodd" d="M7.96875 10.7116L8.03468 10.6406L7.96875 10.7116Z" fill="#1B1C1E"/>
<path fill-rule="evenodd" clip-rule="evenodd" d="M8.08984 10.5495L8.18861 10.4297L8.08984 10.5495Z" fill="#1B1C1E"/>
<path fill-rule="evenodd" clip-rule="evenodd" d="M8.30859 10.3015L8.37453 10.2305L8.30859 10.3015Z" fill="#1B1C1E"/>
<path fill-rule="evenodd" clip-rule="evenodd" d="M20.9922 3.64649e-05C26.3426 -0.00985967 31.4934 1.99485 35.3849 5.60172L34.2693 6.76917L33.993 6.99958C30.4693 3.75738 25.8204 1.9557 20.9922 1.96114H20.7316L20.6482 3.64649e-05H20.9922ZM42 19.9695C42 20.2016 42 20.432 42 20.6607C42.0111 25.9225 39.9704 30.9887 36.2971 34.8185L34.9001 33.4002C38.1951 29.9424 40.0256 25.3816 40.0191 20.6454C40.0191 20.4354 40.0191 20.2255 40.0191 20.0156L42 19.9695ZM21.6125 41.2856H20.9922C15.7535 41.2954 10.7015 39.3752 6.83415 35.9041L8.09565 34.368C11.6049 37.557 16.2115 39.3256 20.9922 39.3194H21.5552L21.6125 41.2856ZM0.000115129 21.6848C0.000115129 21.3417 0.000115129 20.9935 0.000115129 20.6607C-0.0182609 15.2123 2.16382 9.97906 6.06786 6.10864L7.48054 7.49626C3.94412 10.99 1.96261 15.7187 1.97057 20.6454C1.97057 20.9628 1.97057 21.2752 1.97057 21.5875L0.000115129 21.6848Z" fill="#1B1C1E"/>
<path fill-rule="evenodd" clip-rule="evenodd" d="M24.7185 2.84814C28.2732 3.55796 31.5366 5.28001 34.1016 7.79954C35.3763 9.05484 36.4596 10.4846 37.3179 12.0443L35.6029 13.0684C34.4611 10.9532 32.8572 9.11214 30.906 7.67719C28.9549 6.24224 26.7049 5.24889 24.3171 4.76828L24.7185 2.84814ZM37.8652 28.1018C36.7468 30.5464 35.092 32.7179 33.0192 34.4608C30.9465 36.2038 28.5071 37.4751 25.8757 38.1838L25.3544 36.2893C27.7311 35.6492 29.9321 34.4954 31.7963 32.9122C33.6606 31.3291 35.141 29.3566 36.1294 27.1392L37.8652 28.1018ZM10.1277 35.3573C9.34236 34.7938 8.60174 34.1724 7.91224 33.4987C4.61232 30.2626 2.68112 25.9199 2.50652 21.3429L4.50304 21.2661C4.65494 25.3503 6.37811 29.2258 9.32492 32.111C9.91598 32.6944 10.5521 33.2319 11.2276 33.7188L10.1277 35.3573ZM2.49609 20.5953C2.5023 15.7918 4.45048 11.1873 7.91224 7.79442C8.33969 7.37455 8.788 6.98028 9.25194 6.60137L10.6698 7.99411C10.2008 8.3669 9.75194 8.76341 9.32492 9.18204C7.79531 10.6802 6.58124 12.4597 5.75209 14.4189C4.92294 16.3782 4.49496 18.4787 4.49261 20.6005L2.49609 20.5953Z" fill="#1B1C1E"/>
<path fill-rule="evenodd" clip-rule="evenodd" d="M28.7811 6.77441C31.2271 8.10064 33.2812 10.0271 34.743 12.3658C36.2048 14.7045 37.0244 17.3755 37.1217 20.1181L35.1252 20.1847C35.0406 17.7822 34.3239 15.4422 33.0449 13.3927C31.7659 11.3432 29.9683 9.65399 27.8272 8.48974L28.7811 6.77441ZM29.7246 33.9636C27.3112 35.4903 24.5268 36.3569 21.6586 36.4739C18.7905 36.5909 15.9425 35.9541 13.4084 34.6292L14.2321 32.8371C16.4552 34.0225 18.9613 34.6003 21.4892 34.5102C24.0171 34.4202 26.4741 33.6655 28.6039 32.3251L29.7246 33.9636ZM4.87501 21.1627C4.87501 20.9834 4.87501 20.8042 4.87501 20.6506C4.87228 18.5705 5.28812 16.5103 6.09862 14.5885C6.90913 12.6667 8.09832 10.9212 9.59785 9.45237C10.5456 8.52211 11.6066 7.71036 12.7568 7.03555L13.9141 8.64335C12.8512 9.24569 11.8748 9.9844 11.0105 10.84C9.69634 12.1266 8.6541 13.6557 7.94377 15.3394C7.23344 17.0231 6.86904 18.8281 6.87153 20.6506C6.87153 20.8093 6.87153 20.9681 6.87153 21.1217L4.87501 21.1627Z" fill="#1B1C1E"/>
<path fill-rule="evenodd" clip-rule="evenodd" d="M31.6702 12.2576C33.4999 14.5041 34.5472 17.2682 34.658 20.1432C34.7687 23.0181 33.937 25.8521 32.2853 28.228L30.6589 27.0964C32.0517 25.074 32.7521 22.6681 32.6584 20.2281C32.5646 17.7881 31.6816 15.441 30.1376 13.5274L31.6702 12.2576ZM17.2149 33.5634C14.4442 32.7836 11.9949 31.1642 10.2163 28.9363C8.43777 26.7085 7.42084 23.9858 7.31055 21.1568L9.30707 21.0851C9.40376 23.5191 10.2855 25.8601 11.8249 27.7698C13.3644 29.6795 15.4819 31.0593 17.8718 31.7098L17.2149 33.5634ZM7.31055 20.614C7.31702 17.7865 8.23145 15.0331 9.92364 12.7458C11.6158 10.4584 13.9995 8.75379 16.7354 7.87451L17.3609 9.72809C15.0233 10.482 12.9868 11.9399 11.5402 13.8948C10.0936 15.8497 9.31046 18.2024 9.30185 20.6191L7.31055 20.614Z" fill="#1B1C1E"/>
<path fill-rule="evenodd" clip-rule="evenodd" d="M20.8192 11.6079L20.7828 11.8537C18.443 11.9032 16.2162 12.8515 14.58 14.4951C12.9438 16.1386 12.0285 18.3466 12.0304 20.6454C12.0304 20.758 12.0304 20.8707 12.0304 20.9782L10.0391 21.055C10.0391 20.9219 10.0391 20.7836 10.0391 20.6454C10.0385 17.8287 11.1632 15.1243 13.1713 13.1135C15.1794 11.1028 17.9105 9.94623 20.7775 9.89258L20.8192 11.6079ZM21.2832 29.4422C23.6061 29.3651 25.8076 28.4046 27.4231 26.7633C29.0386 25.122 29.9417 22.9283 29.9417 20.6454V20.6146H31.9383V20.6505C31.939 23.4594 30.8208 26.157 28.8228 28.1665C26.8247 30.176 24.1055 31.3377 21.2467 31.4033L21.2832 29.4422Z" fill="#1B1C1E"/>
<path fill-rule="evenodd" clip-rule="evenodd" d="M20.9845 12.4585C22.2635 12.4622 23.5245 12.7548 24.67 13.3136L23.789 15.0596C22.7847 14.5726 21.667 14.3555 20.5495 14.4303C19.4321 14.505 18.3547 14.8691 17.4269 15.4854C16.4991 16.1017 15.7539 16.9483 15.2672 17.9391C14.7804 18.93 14.5694 20.0297 14.6555 21.1266C14.7417 22.2236 15.1219 23.2785 15.7577 24.1843C16.3934 25.0901 17.2619 25.8144 18.275 26.2836C19.288 26.7528 20.4095 26.9503 21.5254 26.8558C22.6413 26.7614 23.7119 26.3784 24.6283 25.7458L25.6448 27.4407C24.5637 28.1577 23.3266 28.6157 22.0326 28.7778C20.7387 28.9399 19.4241 28.8017 18.1944 28.3742C16.9648 27.9467 15.8543 27.2419 14.9523 26.3163C14.0503 25.3908 13.3819 24.2703 13.0007 23.045C12.6196 21.8196 12.5363 20.5235 12.7577 19.2608C12.979 17.9982 13.4988 16.8041 14.2753 15.7745C15.0517 14.7449 16.0632 13.9086 17.2284 13.3327C18.3936 12.7568 19.6801 12.4574 20.9845 12.4585Z" fill="#1B1C1E"/>
<path fill-rule="evenodd" clip-rule="evenodd" d="M20.9881 14.9717C22.4325 14.9794 23.8217 15.5174 24.8827 16.48C25.9438 17.4427 26.5999 18.7603 26.7222 20.174L24.7309 20.3378C24.6586 19.3767 24.2086 18.4808 23.476 17.8396C22.7435 17.1985 21.7857 16.8623 20.8054 16.9022C19.8251 16.9421 18.8989 17.355 18.2229 18.0535C17.5468 18.7519 17.1738 19.6813 17.1827 20.6451V20.7833L15.1914 20.855C15.1914 20.7884 15.1914 20.7167 15.1914 20.6451C15.1928 19.8987 15.3438 19.1599 15.6358 18.4708C15.9279 17.7818 16.3553 17.156 16.8935 16.6291C17.4318 16.1023 18.0704 15.6848 18.773 15.4004C19.4755 15.116 20.2282 14.9703 20.9881 14.9717Z" fill="#1B1C1E"/>
<path fill-rule="evenodd" clip-rule="evenodd" d="M20.9852 17.5117C21.5112 17.5101 22.0296 17.6361 22.4941 17.8785C22.9587 18.1209 23.3552 18.4722 23.6484 18.9013C23.9415 19.3303 24.1223 19.8238 24.1747 20.338C24.2271 20.8522 24.1494 21.3711 23.9486 21.8487C23.7478 22.3263 23.4301 22.7478 23.0236 23.0758C22.6171 23.4038 22.1345 23.6282 21.6185 23.729C21.1026 23.8298 20.5693 23.8039 20.0659 23.6537C19.5626 23.5034 19.1048 23.2334 18.7332 22.8676C18.2188 22.364 17.8951 21.7028 17.8158 20.9936L19.7914 20.7376C19.8201 21.0389 19.9658 21.3178 20.1983 21.5165C20.4308 21.7151 20.7322 21.8182 21.04 21.8043C21.3478 21.7905 21.6383 21.6608 21.8514 21.4422C22.0644 21.2235 22.1836 20.9327 22.1841 20.63C22.1889 20.3276 22.0728 20.0354 21.8609 19.8159C21.7476 19.7005 21.6115 19.6092 21.4609 19.5476C21.3102 19.4859 21.1483 19.4553 20.9852 19.4575C20.8279 19.4575 20.6722 19.4883 20.5272 19.5481C20.3823 19.6078 20.2508 19.6954 20.1407 19.8057C19.9129 20.0223 19.7817 20.3187 19.7758 20.63L17.7949 20.5328C17.8246 19.7213 18.1738 18.9529 18.7689 18.3894C19.364 17.8259 20.1586 17.5112 20.9852 17.5117Z" fill="#1B1C1E"/>
</svg>
