<svg xmlns="http://www.w3.org/2000/svg" xmlns:xlink="http://www.w3.org/1999/xlink" viewBox="0 0 66.94 66.8"><defs><style>.cls-1{isolation:isolate;}.cls-10,.cls-11,.cls-12,.cls-13,.cls-14,.cls-15,.cls-16,.cls-17,.cls-18,.cls-19,.cls-2,.cls-20,.cls-21,.cls-22,.cls-23,.cls-24,.cls-25,.cls-26,.cls-27,.cls-28,.cls-29,.cls-3,.cls-30,.cls-31,.cls-4,.cls-5,.cls-6,.cls-7,.cls-8,.cls-9{fill-rule:evenodd;}.cls-2{fill:url(#radial-gradient);}.cls-11,.cls-13,.cls-15,.cls-17,.cls-18,.cls-19,.cls-20,.cls-21,.cls-22,.cls-3,.cls-5,.cls-7,.cls-9{mix-blend-mode:multiply;}.cls-3{fill:url(#radial-gradient-2);}.cls-4{fill:url(#radial-gradient-3);}.cls-5{fill:url(#radial-gradient-4);}.cls-6{fill:url(#radial-gradient-5);}.cls-7{fill:url(#radial-gradient-6);}.cls-8{fill:url(#radial-gradient-7);}.cls-9{fill:url(#radial-gradient-8);}.cls-10{fill:url(#radial-gradient-9);}.cls-11{fill:url(#radial-gradient-10);}.cls-12{fill:url(#radial-gradient-11);}.cls-13{fill:url(#radial-gradient-12);}.cls-14{fill:url(#radial-gradient-13);}.cls-15{fill:url(#radial-gradient-14);}.cls-16{fill:url(#radial-gradient-15);}.cls-17,.cls-18,.cls-19,.cls-20,.cls-21,.cls-22,.cls-31{opacity:0.5;}.cls-17{fill:url(#radial-gradient-16);}.cls-18{fill:url(#radial-gradient-17);}.cls-19{fill:url(#radial-gradient-18);}.cls-20{fill:url(#radial-gradient-19);}.cls-21{fill:url(#radial-gradient-20);}.cls-22{fill:url(#radial-gradient-21);}.cls-23,.cls-24,.cls-25,.cls-26,.cls-27,.cls-28,.cls-29{opacity:0.4;}.cls-23,.cls-24,.cls-25,.cls-26,.cls-27,.cls-28,.cls-29,.cls-30,.cls-31{mix-blend-mode:screen;}.cls-23{fill:url(#radial-gradient-22);}.cls-24{fill:url(#New_Gradient_Swatch_68);}.cls-25{fill:url(#New_Gradient_Swatch_68-2);}.cls-26{fill:url(#New_Gradient_Swatch_68-3);}.cls-27{fill:url(#New_Gradient_Swatch_68-4);}.cls-28{fill:url(#New_Gradient_Swatch_68-5);}.cls-29{fill:url(#New_Gradient_Swatch_68-6);}.cls-30{fill:url(#radial-gradient-23);}.cls-31{fill:url(#radial-gradient-24);}</style><radialGradient id="radial-gradient" cx="33.5" cy="55.46" r="37.84" gradientUnits="userSpaceOnUse"><stop offset="0" stop-color="#0052cc"/><stop offset="0.23" stop-color="#1777da"/><stop offset="0.59" stop-color="#38abee"/><stop offset="0.85" stop-color="#4cccfa"/><stop offset="1" stop-color="#54d8ff"/></radialGradient><radialGradient id="radial-gradient-2" cx="31.15" cy="42.67" r="28.15" gradientUnits="userSpaceOnUse"><stop offset="0" stop-color="#0369d1"/><stop offset="1" stop-color="#f5ffff"/></radialGradient><radialGradient id="radial-gradient-3" cx="44.79" cy="54.81" r="53.77" xlink:href="#radial-gradient"/><radialGradient id="radial-gradient-4" cx="38.55" cy="31.87" r="39.67" xlink:href="#radial-gradient-2"/><radialGradient id="radial-gradient-5" cx="50.61" cy="43.96" r="54.38" gradientUnits="userSpaceOnUse"><stop offset="0" stop-color="#0033b5"/><stop offset="0.31" stop-color="#0f6dd1"/><stop offset="0.63" stop-color="#1da1ea"/><stop offset="0.87" stop-color="#26c2f9"/><stop offset="1" stop-color="#29ceff"/></radialGradient><radialGradient id="radial-gradient-6" cx="46.44" cy="23.96" r="37.11" xlink:href="#radial-gradient-2"/><radialGradient id="radial-gradient-7" cx="59" cy="40.9" r="83.32" xlink:href="#radial-gradient"/><radialGradient id="radial-gradient-8" cx="50.14" cy="10.19" r="46.04" xlink:href="#radial-gradient-2"/><radialGradient id="radial-gradient-9" cx="47.13" cy="29.09" r="56.41" xlink:href="#radial-gradient"/><radialGradient id="radial-gradient-10" cx="35.36" cy="11.59" r="25.27" xlink:href="#radial-gradient-2"/><radialGradient id="radial-gradient-11" cx="33.83" cy="22.64" r="27.72" xlink:href="#radial-gradient-5"/><radialGradient id="radial-gradient-12" cx="38.51" cy="6.78" r="26.29" xlink:href="#radial-gradient-2"/><radialGradient id="radial-gradient-13" cx="60.91" cy="21.27" r="66.56" xlink:href="#radial-gradient"/><radialGradient id="radial-gradient-14" cx="61.94" cy="-5.54" r="46.43" xlink:href="#radial-gradient-2"/><radialGradient id="radial-gradient-15" cx="31.84" cy="8.69" r="34.98" gradientUnits="userSpaceOnUse"><stop offset="0" stop-color="#4dd5ff"/><stop offset="0.02" stop-color="#4bd2fe"/><stop offset="0.48" stop-color="#2398ee"/><stop offset="0.82" stop-color="#0a74e5"/><stop offset="1" stop-color="#0066e1"/></radialGradient><radialGradient id="radial-gradient-16" cx="48.59" cy="18.01" r="24.13" gradientUnits="userSpaceOnUse"><stop offset="0" stop-color="#f5ffff"/><stop offset="1" stop-color="#0369d1"/></radialGradient><radialGradient id="radial-gradient-17" cx="55.98" cy="27.02" r="15.63" xlink:href="#radial-gradient-16"/><radialGradient id="radial-gradient-18" cx="55.51" cy="41.4" r="18.21" xlink:href="#radial-gradient-16"/><radialGradient id="radial-gradient-19" cx="47.34" cy="53.05" r="19.49" xlink:href="#radial-gradient-16"/><radialGradient id="radial-gradient-20" cx="38.48" cy="64.94" r="20.27" xlink:href="#radial-gradient-16"/><radialGradient id="radial-gradient-21" cx="28.48" cy="48.31" r="23.22" xlink:href="#radial-gradient-16"/><radialGradient id="radial-gradient-22" cx="46.01" cy="-0.01" r="29.34" gradientUnits="userSpaceOnUse"><stop offset="0.33"/><stop offset="1" stop-color="#9ff"/></radialGradient><radialGradient id="New_Gradient_Swatch_68" cx="26.16" cy="13.77" r="17.33" gradientUnits="userSpaceOnUse"><stop offset="0.59"/><stop offset="1" stop-color="#9ff"/></radialGradient><radialGradient id="New_Gradient_Swatch_68-2" cx="44.13" cy="6.9" r="31.45" xlink:href="#New_Gradient_Swatch_68"/><radialGradient id="New_Gradient_Swatch_68-3" cx="33.18" cy="15.33" r="29.67" xlink:href="#New_Gradient_Swatch_68"/><radialGradient id="New_Gradient_Swatch_68-4" cx="21.13" cy="29.27" r="20.42" xlink:href="#New_Gradient_Swatch_68"/><radialGradient id="New_Gradient_Swatch_68-5" cx="34.44" cy="30.64" r="20.01" xlink:href="#New_Gradient_Swatch_68"/><radialGradient id="New_Gradient_Swatch_68-6" cx="14.45" cy="37.88" r="16" xlink:href="#New_Gradient_Swatch_68"/><radialGradient id="radial-gradient-23" cx="38.82" cy="39.99" r="44.69" gradientUnits="userSpaceOnUse"><stop offset="0.04"/><stop offset="0.84"/><stop offset="0.85" stop-color="#0d1616"/><stop offset="0.9" stop-color="#3e6868"/><stop offset="0.93" stop-color="#65a9a9"/><stop offset="0.96" stop-color="#81d7d7"/><stop offset="0.99" stop-color="#93f4f4"/><stop offset="1" stop-color="#9ff"/></radialGradient><radialGradient id="radial-gradient-24" cx="-5.28" cy="-9.53" r="67.1" gradientUnits="userSpaceOnUse"><stop offset="0" stop-color="#c4ffe2"/><stop offset="1"/></radialGradient></defs><title>Piter</title><g class="cls-1"><g id="Слой_2" data-name="Слой 2"><g id="Layer_1" data-name="Layer 1"><path class="cls-2" d="M2.57,40.2,46.76,62C37.33,70.45,23,66.31,14.67,60.63,8.14,56.15,3,50.05,2.17,43.12a5.64,5.64,0,0,1,.4-2.92Z"/><path class="cls-3" d="M2.2,41.51a15.34,15.34,0,0,0,3.49,7A74.36,74.36,0,0,0,17.23,58.85c5.34,3.81,10.79,6.26,17.41,6.36a24.32,24.32,0,0,0,10.45-1.9A18.84,18.84,0,0,0,46.76,62L2.57,40.2a7.57,7.57,0,0,0-.37,1.31Z"/><path class="cls-4" d="M1.59,28.89,56.4,55.75c-1.54,3.76-4.77,6.09-10.24,7a36.79,36.79,0,0,1-7.93.38,35.28,35.28,0,0,1-14.41-3.73c-6.2-2.9-8.17-4.9-13.27-8.84-6-4.63-14-12.77-9-21.71Z"/><path class="cls-5" d="M1.23,29.56A37.6,37.6,0,0,0,14.91,49.62c3.57,2.57,7.81,4,11.76,6,2.66,1.32,5.28,2.73,8,3.81,8.52,3.32,14.11,1.69,21.22-2.68a10,10,0,0,0,.46-1L1.59,28.89c-.13.23-.25.45-.36.67Z"/><path class="cls-6" d="M7.79,18.05l56,25c.64,6.13-2.69,11.4-9,13.54-5.36,1.83-12.77,2.11-18.12.16C28.82,53.9,20.35,50.33,14,45.06,9.48,41.29.86,32.57.91,26.49c0-4.69,2.27-7.3,6.88-8.44Z"/><path class="cls-7" d="M10.28,29.59a10.84,10.84,0,0,1,1.2,1.8C16,39.43,18.84,44,24.68,47.6c6.8,4.26,9.82,4.36,18.68,2.94a11,11,0,0,1,3.38-.11C56.08,52,61.53,53.13,63.82,45a15,15,0,0,0-.07-1.88l-56-25a12.37,12.37,0,0,0-3.1,1.19c.69,4.85,4.81,9.46,5.59,10.35Z"/><path class="cls-8" d="M11.63,23.93l52.63,3.12c2.9,4.68,3.87,9.59.76,14.59-1.73,2.77-5.38,4.69-8.58,5.41-5.66,1.26-8.63-.07-14-.48-6.6-.5-7.28.64-14.12-2.46-4.86-2.2-9.54-5.37-12.58-9.71a25.61,25.61,0,0,1-4.11-10.47Z"/><path class="cls-9" d="M12.66,28.15c6,6.87,16.54,12.11,24.77,13.23,5.56.75,6.33-.24,11.18-1.39a23.68,23.68,0,0,1,4.25-.76c7.48-.37,14.06.39,13.6-7.34a19.15,19.15,0,0,0-2.2-4.84L11.63,23.93a33.63,33.63,0,0,0,1,4.22Z"/><path class="cls-10" d="M14.54,11.73c-7.09-1.55-10.69,2.79-9.92,6.64C6.24,26.42,16.4,31.18,23.2,33.73A57.67,57.67,0,0,0,37.78,37a22.5,22.5,0,0,0,11.67-1.78L14.54,11.73Z"/><path class="cls-11" d="M9.7,11.61C9.35,18.35,12.37,24,18.62,27.89c3.83,2.4,13,5.11,17.41,5.83a40.24,40.24,0,0,0,11.42.11L14.54,11.73a11.59,11.59,0,0,0-4.84-.12Z"/><path class="cls-12" d="M15.78,7.42,37,29.85A50,50,0,0,1,19.45,24.7c-2.77-1.54-5.34-3.25-7.14-6a16.16,16.16,0,0,1-1.59-3.49c-.8-2.23-1.85-5.34.71-7a6.67,6.67,0,0,1,4.35-.79Z"/><path class="cls-13" d="M14.15,7.38c-.91,2.57,0,5.69,1.59,8.6,2.81,5.09,5.12,6.89,9.79,10a17.94,17.94,0,0,1,2.38,2.12A44.87,44.87,0,0,0,37,29.85L15.78,7.42a8.15,8.15,0,0,0-1.63,0Z"/><path class="cls-14" d="M23.07,3.36l26,2.86c7.56,3.18,20.4,17.19,15.77,24.67-2,3.22-5.36,3.54-8.79,3.88-1.53.16-3.08.2-4.62.33a16.46,16.46,0,0,1-3.27.36,19.3,19.3,0,0,1-4.94-1.32c-4.62-1.85-6.37-3.4-10.11-6.19-1.73-1.29-3.47-2.57-5.24-3.81-2.56-1.77-5.15-2.9-7.46-5.21a35.05,35.05,0,0,1-3.22-3.68c-1.57-2.11-4.41-6.26-3-8.78,1-1.78,5.3-3.68,8.92-3.11Z"/><path class="cls-15" d="M22.31,3.28c-2.7,1.9-1.61,5.32.17,8.07C26.38,17.39,33.33,24,39.89,27c2.61,1.22,4.94.48,7.29.49,2.69,0,6.09.9,8.93,1.31,4.17.6,6.69-.49,7.65-2.76a8.08,8.08,0,0,0,0-5.69c-3.35-6.12-10-12.19-14.67-14.15l-26-2.86a6.31,6.31,0,0,0-.76-.08Z"/><path class="cls-16" d="M51.06,23.84c1.65-.11,3.33.19,5,0,3.61-.51,5.52-1.93,6-3.93C63.71,12,49.87,2.74,41.15.72,34.32-.86,16.94-.52,22.64,8.85c3.26,5.36,8.94,9.1,14.18,12.41,5.53,3.51,8.28,3,14.24,2.58Z"/><path class="cls-17" d="M56.62,15.18c1.15,2.38,3.94,4.95,2,8,1.93-.72,3-1.85,3.33-3.3a6.83,6.83,0,0,0,.11-2.12c-.8-7.32-13-15.19-20.94-17A36.54,36.54,0,0,0,31.37.08c4.24,0,9.39.55,12.49,2.83.93.67,1.71,1.54,2.67,2.17.64.42,1.21.76,1.74,1.06C51.05,7.7,52.35,7.91,55,11.75a25.68,25.68,0,0,1,1.63,3.43Z"/><path class="cls-18" d="M62,19.87c-.32,1.45-1.4,2.58-3.33,3.3,2.77-.17,2.78,1.71,2.65,3.7l-.06.82a21.82,21.82,0,0,1-.59,2.61,9.93,9.93,0,0,1-.33,2.34,3.37,3.37,0,0,1-1.57,1.8c2.42-.39,4.62-1.19,6.07-3.55a6.26,6.26,0,0,0,.69-1.54c1-3.36-.66-7.62-3.42-11.6A6.83,6.83,0,0,1,62,19.87Z"/><path class="cls-19" d="M64.82,30.89c-1.45,2.36-3.65,3.16-6.07,3.55,2.08,1.27,1.58,4.54.92,6.47l-.11.29a12.57,12.57,0,0,1-1.69,3,12.27,12.27,0,0,1-5.33,3.39,22.22,22.22,0,0,0,3.9-.52,15.63,15.63,0,0,0,7.32-3.84A9.33,9.33,0,0,0,65,41.64c2.6-4.19,2.35-8.31.49-12.29a6.26,6.26,0,0,1-.69,1.54Z"/><path class="cls-20" d="M63.76,43.21a15.63,15.63,0,0,1-7.32,3.84,22.22,22.22,0,0,1-3.9.52c2.43,1.13-.23,3.06-.49,4.44-.3,1.54-.14,2.24-1.17,3.11-1.82,1.55-5.63,2.62-9.37,2.77a31.2,31.2,0,0,0,13.26-1.28,16,16,0,0,0,1.52-.6,12.35,12.35,0,0,0,7.47-12.8Z"/><path class="cls-21" d="M54.77,56.61a31.2,31.2,0,0,1-13.26,1.28c.81.56,1.62,1.81.53,2.5s-1.36,1.4-2.64,1.69a31.81,31.81,0,0,1-9.93-.4,33.35,33.35,0,0,0,8.76,1.49,37.79,37.79,0,0,0,7.45-.3l.48-.08c5.34-.93,8.55-3.17,10.13-6.78a16,16,0,0,1-1.52.6Z"/><path class="cls-22" d="M45.68,62.87a37.79,37.79,0,0,1-7.45.3,33.35,33.35,0,0,1-8.76-1.49c2.09,1.24,1.09,2.77-1.28,2.51-6.17-.7-17.27-6.1-22-11.6a35.28,35.28,0,0,0,8.53,8c8,5.47,21.58,9.51,31,2.24Z"/><path class="cls-23" d="M22.64,8.85c3.26,5.36,8.94,9.1,14.18,12.41A15.37,15.37,0,0,0,45,24.11a1.64,1.64,0,0,0,1.68-1.34,9.13,9.13,0,0,0,0-3.83,29.94,29.94,0,0,1-1.41-4.19c-.18-.84.1-1.74-.11-2.56a10.26,10.26,0,0,0-1.42-3.27,14.53,14.53,0,0,0-4-3.72,14.75,14.75,0,0,0-6.61-2.48c-1.82-.13-3.66.21-5.49.22s-1.94-.35-4,.27a2.87,2.87,0,0,0-.44.17,2.74,2.74,0,0,0-1.38,1.43,2.55,2.55,0,0,0-.19,1.74,8.31,8.31,0,0,0,1,2.3Zm23.29,5.33A3.23,3.23,0,0,0,46,15.34a3.45,3.45,0,0,0,.62,1.26.82.82,0,0,0,.67.28c.16,0,.27-.23.28-.38a8.58,8.58,0,0,0,0-2.32,1.09,1.09,0,0,0-.48-.64.78.78,0,0,0-1.18.64Z"/><path class="cls-24" d="M12.31,18.72a13.46,13.46,0,0,0,1.74,2.13,22.21,22.21,0,0,0,4.79,3.51l.61.34A36.43,36.43,0,0,0,24.66,27a41.39,41.39,0,0,1-3.36-2.47l0,0c-.68-.46-1.46-.75-2.11-1.25L18.82,23c-1.57-1.28-1.54-1.81-2.61-3.49A14.54,14.54,0,0,1,15,17.86c-.85-1.95-1-4-2.14-6.17,0-.08-.09-.16-.14-.24a1.36,1.36,0,0,0-.44-.42,1.24,1.24,0,0,0-.89-.19,1.86,1.86,0,0,0-.69.41,2,2,0,0,0-.61,2.05,19,19,0,0,0,.62,1.93,16.16,16.16,0,0,0,1.59,3.49Z"/><path class="cls-25" d="M17.17,15.25a35.05,35.05,0,0,0,3.22,3.68c2.31,2.31,4.9,3.44,7.46,5.21L29,25q2.07,1.47,4.09,3l2.31,1.74c1,.72,1.85,1.36,2.79,1.95a28,28,0,0,0,3.75,2c-.24-.19-.47-.4-.69-.61-1.85-1.82-2.94-4.48-6.51-7.71h0a29.87,29.87,0,0,0-2.68-2.16,15.4,15.4,0,0,0-2.39-1.25l-.33-.16a8.06,8.06,0,0,1-.71-.39,17.65,17.65,0,0,1-2.76-2,15.38,15.38,0,0,1-2.4-3.22c-.36-.56-.65-1.07-.9-1.54-1.51-2.79-1.52-4.29-2.83-7.22a2.07,2.07,0,0,0-1.06-1c-.91-.39-2.34.22-3.31,1l-.11.09a2.85,2.85,0,0,0-.79,3.35c.19.43.41.87.64,1.29a29,29,0,0,0,2.07,3.14ZM40.88,30.11c-.11-.1-.34-.1-.37.23a3.82,3.82,0,0,0,1.58,2.57,4,4,0,0,0,1.57.64c.75.17,2.21-.3,1.57-1a10.73,10.73,0,0,0-2.39-.91,5,5,0,0,1-2-1.52Z"/><path class="cls-26" d="M5.55,19l0,.1a3.16,3.16,0,0,0,.25,2.46C9,27.71,17.36,31.54,23.2,33.73a56,56,0,0,0,12.06,2.94c-2.8-.84-3.5-1.6-7.18-2.93A28.31,28.31,0,0,1,25,32.55c-1.15-.57-1.2-1.76-3.52-2.27-3.05-.67-3.42-2.06-6.44-4a17.64,17.64,0,0,1-2.75-1.93c-2-2.08-2.4-5.4-3.64-7.54a1,1,0,0,0-.79-.41c-1.09-.05-2,1.73-2.29,2.59Z"/><path class="cls-27" d="M2.68,29.43a11.5,11.5,0,0,0,1.39,5A58,58,0,0,0,14,45.06l.12.1c-.87-1.19-.66-1.93-1.68-3a8.93,8.93,0,0,1-1.09-2c-.79-1.76-.75-3.43-1.3-5.2A16.3,16.3,0,0,0,9,32.51c-.15-.31-.3-.62-.44-1-.66-1.62-1.06-3.34-1.74-4.95C6,24.79,3.4,24.47,3,26.71a12.09,12.09,0,0,0-.28,2.72Zm10.89,8.23a1.41,1.41,0,0,0-1.05-.3c-.64.25-.69,2-.1,3a3.72,3.72,0,0,0,2.19,1.89c.23,0,.38-.17.37-.41s-.58-1.35-.75-2.28a3.68,3.68,0,0,0-.66-1.92Z"/><path class="cls-28" d="M15.74,34.4a22.86,22.86,0,0,0,1.92,2.37,33.25,33.25,0,0,0,10.66,7.34l.59.27c-.89-1-1.36-2.13-2.16-3.15a5.89,5.89,0,0,0-1.08-1.1c-.77-.6-1.77-.85-2.55-1.44-.34-.25-.44-.73-.74-1-2.33-2.29-5.87-3.23-8.12-5.69a19.5,19.5,0,0,0,1.48,2.43Z"/><path class="cls-29" d="M.18,36.71a15.19,15.19,0,0,0,2,5l.17.27a31.64,31.64,0,0,0,6.56,7.24A24.67,24.67,0,0,1,6.4,45.19c-.92-1.6-2.62-5.54-3.12-6.74-.39-1-3-4.46-3.1-1.8v.06Z"/><path class="cls-30" d="M65.51,29.35c1-3.36-.66-7.62-3.43-11.6-.8-7.32-13-15.19-20.93-17C36.08-.45,25.22-.57,22.27,3.28c-3.43-.21-7.22,1.54-8.12,3.19a2.72,2.72,0,0,0-.32,1,5.62,5.62,0,0,0-2.4.78,3.55,3.55,0,0,0-1.61,3.38H9.7c-3.83.81-5.65,3.91-5.08,6.75a7.1,7.1,0,0,0,.22.79C2.22,20.59.94,22.94.91,26.49a8.79,8.79,0,0,0,.49,2.76C-1,33.74-.06,38,2.17,41.74a5.31,5.31,0,0,0,0,1.38c.85,6.93,6,13,12.5,17.51,8,5.47,21.59,9.5,31,2.23l.47-.07c5.34-.93,8.53-3.18,10.12-6.79a12.37,12.37,0,0,0,7.48-12.82A9.64,9.64,0,0,0,65,41.64C67.62,37.46,67.36,33.33,65.51,29.35Z"/><path class="cls-31" d="M13.06,10.33a17.07,17.07,0,0,1-2.8,1.41c-.88.4-2,2.64-2.2,2.94A45.62,45.62,0,0,0,3.8,21.11a28,28,0,0,0-1.65,5.95,15.25,15.25,0,0,0-.22,2.43,9.91,9.91,0,0,1,0,1.09c-.25,1.81.18,3.22,1.72,5.67a33.41,33.41,0,0,0,1.89,2.94,23.61,23.61,0,0,0,2.87,3.43,11,11,0,0,0,3.13,1.78,12.24,12.24,0,0,0,3,.7,28,28,0,0,0,5.47.47,11.39,11.39,0,0,0,3.09-1c1.44-.52,2.83-1.16,4.26-1.7,2.72-1,4.59-1.79,6.6-4,1.15-1.27,2-2.78,3.18-4,.58-.64,1.48-.94,2-1.61a10.93,10.93,0,0,0,1.65-2.82c.46-1.11.57-2.34,1-3.48a22.12,22.12,0,0,0,1.13-2.61,28.84,28.84,0,0,0,.47-6.08,13.7,13.7,0,0,0-.73-3.74A14.62,14.62,0,0,0,41.09,11a16.51,16.51,0,0,0-2.3-2.43,19.7,19.7,0,0,0-7.35-4.13,14.13,14.13,0,0,0-4.3-.3A28.61,28.61,0,0,0,22.71,5.2a38.65,38.65,0,0,0-4.3,1.09A11,11,0,0,0,15.54,7.9c-.93.69-1.52,1.78-2.48,2.43ZM4,38.54c-.08-.13-.3-.28-.43-.19-1.07.76.21,3.74.67,4.67a5.67,5.67,0,0,0,1.94,2.31c.55.33,1.3-.13,1.91.05s.69.67,1.23.86c1.74.61,3-.44,1.59-1A12,12,0,0,1,8.7,44.09C6.28,42.37,5.42,40.81,4,38.54Zm34.58-3.45a.5.5,0,0,0-.46,0,2.84,2.84,0,0,0-.77.61,4.93,4.93,0,0,0-.74,1.08,2.49,2.49,0,0,0-.31,1.09c0,.17.16.4.33.39a3.4,3.4,0,0,0,1.71-.46c.72-.47.83-2.33.24-2.73Z"/></g></g></g></svg>